<svg width="194" height="96" viewBox="0 0 194 96" fill="none" xmlns="http://www.w3.org/2000/svg">
<rect width="194" height="96" fill="white"/>
<g clip-path="url(#clip0_4_2)">
<path d="M37.5 70.5V32L55.5 61L73 32V69L78.7292 56.5M78.7292 56.5L89.5 33L99.5 56.5H78.7292ZM128.5 39C127 36.5 122.2 31.8 115 33C106 34.5 101 39.5 99.5 48C98 56.5 101.5 67.5 115 69C121 69 123.5 68.1 129.5 62.5M129.5 62.5V52.5H120.5M129.5 62.5C133.9 67.3 140.667 68.8333 143.5 69C153.1 70.2 156.5 64.1667 157 61C157.5 54 150 51 141.5 50C134.7 49.2 132.667 45 132.5 43C131.7 36.6 138.167 33.6667 141.5 33C147.9 31 153.5 34.8333 155.5 37" stroke="#132D54" stroke-width="2"/>
<path d="M28.5 16H176C178.5 16 183 15.7 183 22.5C183 29.3 183 60.3333 183 75" stroke="#1F599B" stroke-width="2"/>
<path d="M165.5 79H18C15 79 11 79.3 11 72.5C11 65.7 11 34.6667 11 20" stroke="#132D53" stroke-width="2"/>
<path d="M29.5 10L24 16.5L29.5 22.5V10Z" fill="#1A589A"/>
<path d="M164.5 85.5L170 79L164.5 73V85.5Z" fill="#132D54"/>
</g>
<defs>
<clipPath id="clip0_4_2">
<rect width="174" height="76" fill="white" transform="translate(10 10)"/>
</clipPath>
</defs>
</svg>
